# xmcd
#
# Track frame offsets:
#  150
#  15558
#  37090
#  50190
#  71225
#  90875
#  106990
#  125178
#  146450
#  157755
#  176923
#  188163
#
# Disc length: 2754 seconds
#
# Revision: 0
# Processed by: cddbd v1.4PL0 Copyright (c) Steve Scherf et al.
# Submitted via: AlterCode_WhopSee 2.7
#
DISCID=a70ac00c
DTITLE=Clifton Chenier - King of Zydeco
DYEAR=1900
DGENRE=
TTITLE0=My Baby She's Gone To Stay
TTITLE1=Drifting Blues
TTITLE2=Tutti Frutti
TTITLE3=Love Me Or Leave Me
TTITLE4=Old Time Waltz
TTITLE5=Zydeco Boogie
TTITLE6=What'd I Say
TTITLE7=Moon Is Rising
TTITLE8=Zydeco Jazz
TTITLE9=Zydeco Is Back Again
TTITLE10=Mama Told Papa
TTITLE11=Tired Of Being Alone
EXTD=
EXTT0=
EXTT1=
EXTT2=
EXTT3=
EXTT4=
EXTT5=
EXTT6=
EXTT7=
EXTT8=
EXTT9=
EXTT10=
EXTT11=
PLAYORDER=
